<mxfile>
    <diagram id="kgpKYQtTHZ0yAKxKKP6v" name="Page-1">
        <mxGraphModel dx="1886" dy="486" grid="1" gridSize="10" guides="1" tooltips="1" connect="1" arrows="1" fold="1" page="1" pageScale="1" pageWidth="850" pageHeight="1100" math="0" shadow="0">
            <root>
                <mxCell id="0"/>
                <mxCell id="1" parent="0"/>
                <mxCell id="4" value="" style="ellipse;whiteSpace=wrap;html=1;" parent="1" vertex="1">
                    <mxGeometry x="-10" y="90" width="810" height="500" as="geometry"/>
                </mxCell>
                <mxCell id="EchnxL360Gzji8mLbnqo-2" value="useOldNote.tsx" style="rounded=0;whiteSpace=wrap;html=1;fillColor=#ffcccc;strokeColor=#36393d;" parent="1" vertex="1">
                    <mxGeometry x="200" y="380" width="120" height="60" as="geometry"/>
                </mxCell>
                <mxCell id="7" value="Timelinestate(App.tsx)&lt;br&gt;中身はhogeTimeline,インデックスではない" style="text;html=1;strokeColor=none;fillColor=none;align=center;verticalAlign=middle;whiteSpace=wrap;rounded=0;" parent="1" vertex="1">
                    <mxGeometry x="270" y="120" width="230" height="20" as="geometry"/>
                </mxCell>
                <mxCell id="11" value="" style="group;" parent="1" vertex="1" connectable="0">
                    <mxGeometry x="840" y="295" width="180" height="60" as="geometry"/>
                </mxCell>
                <mxCell id="8" value="useSwitchTL.tsx" style="rounded=0;whiteSpace=wrap;html=1;fillColor=#60a917;strokeColor=#2D7600;fontColor=#ffffff;" parent="11" vertex="1">
                    <mxGeometry width="180" height="60" as="geometry"/>
                </mxCell>
                <mxCell id="9" value="convert" style="rounded=0;whiteSpace=wrap;html=1;" parent="11" vertex="1">
                    <mxGeometry y="40" width="60" height="20" as="geometry"/>
                </mxCell>
                <mxCell id="10" value="reconvert" style="rounded=0;whiteSpace=wrap;html=1;" parent="11" vertex="1">
                    <mxGeometry x="60" y="40" width="60" height="20" as="geometry"/>
                </mxCell>
                <mxCell id="12" value="&lt;font style=&quot;font-size: 10px&quot;&gt;return {convert.reconvert}&lt;/font&gt;" style="rounded=0;whiteSpace=wrap;html=1;strokeColor=#2D7600;align=center;fillColor=#60a917;fontColor=#ffffff;" parent="11" vertex="1">
                    <mxGeometry width="180" height="20" as="geometry"/>
                </mxCell>
                <mxCell id="65" value="toendpoint" style="rounded=0;whiteSpace=wrap;html=1;" vertex="1" parent="11">
                    <mxGeometry x="120" y="40" width="60" height="20" as="geometry"/>
                </mxCell>
                <mxCell id="14" value="" style="group" parent="1" vertex="1" connectable="0">
                    <mxGeometry x="410" y="335" width="260" height="100" as="geometry"/>
                </mxCell>
                <mxCell id="3" value="Switchtimeline.tsx" style="rounded=0;whiteSpace=wrap;html=1;fillColor=#1ba1e2;strokeColor=#006EAF;fontColor=#ffffff;" parent="14" vertex="1">
                    <mxGeometry y="10" width="260" height="90" as="geometry"/>
                </mxCell>
                <mxCell id="13" value="&amp;lt;ButtonGroup&amp;gt;&lt;br&gt;selectedIndex(0,1,2,3)" style="rounded=0;whiteSpace=wrap;html=1;" parent="14" vertex="1">
                    <mxGeometry x="130" y="70" width="130" height="30" as="geometry"/>
                </mxCell>
                <mxCell id="16" value="ws.send(disconnect&amp;nbsp;&lt;br&gt;-&amp;gt; connect)" style="rounded=0;whiteSpace=wrap;html=1;" parent="14" vertex="1">
                    <mxGeometry y="70" width="130" height="30" as="geometry"/>
                </mxCell>
                <mxCell id="15" value="" style="endArrow=classic;html=1;entryX=0.5;entryY=1;entryDx=0;entryDy=0;exitX=1;exitY=0.5;exitDx=0;exitDy=0;fillColor=#d5e8d4;strokeColor=#82b366;gradientColor=#97d077;" parent="1" source="13" target="9" edge="1">
                    <mxGeometry width="50" height="50" relative="1" as="geometry">
                        <mxPoint x="400" y="330" as="sourcePoint"/>
                        <mxPoint x="450" y="280" as="targetPoint"/>
                        <Array as="points">
                            <mxPoint x="870" y="415"/>
                        </Array>
                    </mxGeometry>
                </mxCell>
                <mxCell id="26" value="変更されたら" style="edgeLabel;html=1;align=center;verticalAlign=middle;resizable=0;points=[];" parent="15" vertex="1" connectable="0">
                    <mxGeometry x="-0.102" y="1" relative="1" as="geometry">
                        <mxPoint as="offset"/>
                    </mxGeometry>
                </mxCell>
                <mxCell id="17" value="" style="endArrow=classic;html=1;exitX=0.65;exitY=0.951;exitDx=0;exitDy=0;exitPerimeter=0;entryX=0.5;entryY=1;entryDx=0;entryDy=0;fillColor=#d5e8d4;strokeColor=#82b366;gradientColor=#97d077;" parent="1" source="9" target="16" edge="1">
                    <mxGeometry width="50" height="50" relative="1" as="geometry">
                        <mxPoint x="400" y="330" as="sourcePoint"/>
                        <mxPoint x="450" y="280" as="targetPoint"/>
                        <Array as="points">
                            <mxPoint x="879" y="470"/>
                            <mxPoint x="475" y="470"/>
                        </Array>
                    </mxGeometry>
                </mxCell>
                <mxCell id="19" value="" style="endArrow=classic;startArrow=classic;html=1;entryX=0.5;entryY=1;entryDx=0;entryDy=0;exitX=1;exitY=0.75;exitDx=0;exitDy=0;fillColor=#f8cecc;strokeColor=#b85450;gradientColor=#ea6b66;" parent="1" edge="1" source="3">
                    <mxGeometry width="50" height="50" relative="1" as="geometry">
                        <mxPoint x="691" y="399.9999999999999" as="sourcePoint"/>
                        <mxPoint x="931" y="354.9999999999999" as="targetPoint"/>
                        <Array as="points">
                            <mxPoint x="931" y="408"/>
                        </Array>
                    </mxGeometry>
                </mxCell>
                <mxCell id="20" value="Selectedindexは再変換(hogetimeline -&amp;gt; 0~3)したtimelinestate" style="text;html=1;align=center;verticalAlign=middle;whiteSpace=wrap;rounded=0;fontColor=#FF3333;" parent="1" vertex="1">
                    <mxGeometry x="680" y="370" width="150" height="20" as="geometry"/>
                </mxCell>
                <mxCell id="28" value="" style="endArrow=classic;html=1;gradientColor=#97d077;fillColor=#d5e8d4;strokeColor=#82b366;" parent="1" edge="1">
                    <mxGeometry width="50" height="50" relative="1" as="geometry">
                        <mxPoint x="490" y="470" as="sourcePoint"/>
                        <mxPoint x="290" y="470" as="targetPoint"/>
                        <Array as="points"/>
                    </mxGeometry>
                </mxCell>
                <mxCell id="32" value="" style="group" vertex="1" connectable="0" parent="1">
                    <mxGeometry x="160" y="270" width="250" height="120" as="geometry"/>
                </mxCell>
                <mxCell id="33" value="" style="group" vertex="1" connectable="0" parent="32">
                    <mxGeometry y="-50" width="250" height="120" as="geometry"/>
                </mxCell>
                <mxCell id="30" value="" style="rounded=0;whiteSpace=wrap;html=1;" vertex="1" parent="33">
                    <mxGeometry width="200" height="120" as="geometry"/>
                </mxCell>
                <mxCell id="29" value="ReturnWS.tsx" style="rounded=0;whiteSpace=wrap;html=1;fillColor=#cdeb8b;strokeColor=#36393d;" vertex="1" parent="33">
                    <mxGeometry x="40" y="45" width="120" height="60" as="geometry"/>
                </mxCell>
                <mxCell id="31" value="StreamWebsocket.tsx" style="text;html=1;strokeColor=none;fillColor=none;align=center;verticalAlign=middle;whiteSpace=wrap;rounded=0;" vertex="1" parent="33">
                    <mxGeometry x="80" y="10" width="40" height="20" as="geometry"/>
                </mxCell>
                <mxCell id="36" value="&lt;font style=&quot;font-size: 12px&quot;&gt;onmessage&lt;/font&gt;" style="rounded=0;whiteSpace=wrap;html=1;fontSize=14;fontColor=#000000;" vertex="1" parent="33">
                    <mxGeometry x="40" y="90" width="70" height="15" as="geometry"/>
                </mxCell>
                <mxCell id="49" value="&lt;font style=&quot;font-size: 12px&quot;&gt;ローディング（予定）&lt;/font&gt;" style="ellipse;shape=cloud;whiteSpace=wrap;html=1;fontSize=14;fontColor=#000000;align=center;" vertex="1" parent="33">
                    <mxGeometry x="160" y="-30" width="90" height="85" as="geometry"/>
                </mxCell>
                <mxCell id="34" value="NoteList" style="shape=cube;whiteSpace=wrap;html=1;boundedLbl=1;backgroundOutline=1;darkOpacity=0.05;darkOpacity2=0.1;fillColor=#ffcc99;strokeColor=#36393d;fontSize=14;" vertex="1" parent="1">
                    <mxGeometry x="-200" y="285" width="120" height="80" as="geometry"/>
                </mxCell>
                <mxCell id="37" value="" style="endArrow=classic;html=1;fontSize=14;fontColor=#000000;exitX=1.026;exitY=0.43;exitDx=0;exitDy=0;exitPerimeter=0;entryX=0;entryY=0.5;entryDx=0;entryDy=0;" edge="1" parent="1" source="34" target="36">
                    <mxGeometry width="50" height="50" relative="1" as="geometry">
                        <mxPoint x="270" y="400" as="sourcePoint"/>
                        <mxPoint x="320" y="350" as="targetPoint"/>
                        <Array as="points">
                            <mxPoint x="-60" y="318"/>
                        </Array>
                    </mxGeometry>
                </mxCell>
                <mxCell id="39" value="&lt;font style=&quot;font-size: 12px&quot;&gt;取得&lt;/font&gt;" style="edgeLabel;html=1;align=center;verticalAlign=middle;resizable=0;points=[];fontSize=14;fontColor=#000000;" vertex="1" connectable="0" parent="37">
                    <mxGeometry x="0.1818" y="1" relative="1" as="geometry">
                        <mxPoint as="offset"/>
                    </mxGeometry>
                </mxCell>
                <mxCell id="38" value="" style="endArrow=classic;html=1;fontSize=14;fontColor=#000000;exitX=0.5;exitY=1;exitDx=0;exitDy=0;entryX=0;entryY=0;entryDx=120;entryDy=50;entryPerimeter=0;" edge="1" parent="1" source="36" target="34">
                    <mxGeometry width="50" height="50" relative="1" as="geometry">
                        <mxPoint x="270" y="400" as="sourcePoint"/>
                        <mxPoint x="320" y="350" as="targetPoint"/>
                        <Array as="points">
                            <mxPoint x="235" y="335"/>
                        </Array>
                    </mxGeometry>
                </mxCell>
                <mxCell id="40" value="&lt;font style=&quot;font-size: 12px&quot;&gt;追加したリストに更新&lt;/font&gt;" style="edgeLabel;html=1;align=center;verticalAlign=middle;resizable=0;points=[];fontSize=14;fontColor=#000000;" vertex="1" connectable="0" parent="38">
                    <mxGeometry x="-0.098" relative="1" as="geometry">
                        <mxPoint as="offset"/>
                    </mxGeometry>
                </mxCell>
                <mxCell id="43" value="" style="endArrow=classic;html=1;fontSize=14;fontColor=#000000;exitX=0;exitY=1;exitDx=0;exitDy=0;entryX=0.378;entryY=0.987;entryDx=0;entryDy=0;entryPerimeter=0;" edge="1" parent="1" source="47" target="34">
                    <mxGeometry width="50" height="50" relative="1" as="geometry">
                        <mxPoint x="125" y="540" as="sourcePoint"/>
                        <mxPoint x="-190" y="550" as="targetPoint"/>
                        <Array as="points">
                            <mxPoint x="200" y="460"/>
                            <mxPoint x="-155" y="460"/>
                        </Array>
                    </mxGeometry>
                </mxCell>
                <mxCell id="44" value="&lt;font style=&quot;font-size: 12px&quot;&gt;追加したリストに更新&lt;/font&gt;" style="edgeLabel;html=1;align=center;verticalAlign=middle;resizable=0;points=[];fontSize=14;fontColor=#000000;" vertex="1" connectable="0" parent="43">
                    <mxGeometry x="-0.098" relative="1" as="geometry">
                        <mxPoint as="offset"/>
                    </mxGeometry>
                </mxCell>
                <mxCell id="45" value="" style="endArrow=classic;html=1;fontSize=14;fontColor=#000000;exitX=0;exitY=0;exitDx=70;exitDy=80;exitPerimeter=0;entryX=0;entryY=0.25;entryDx=0;entryDy=0;" edge="1" parent="1" source="34" target="47">
                    <mxGeometry width="50" height="50" relative="1" as="geometry">
                        <mxPoint x="-122" y="362" as="sourcePoint"/>
                        <mxPoint x="-90" y="480" as="targetPoint"/>
                        <Array as="points">
                            <mxPoint x="-130" y="424"/>
                        </Array>
                    </mxGeometry>
                </mxCell>
                <mxCell id="46" value="&lt;font style=&quot;font-size: 12px&quot;&gt;取得&lt;/font&gt;" style="edgeLabel;html=1;align=center;verticalAlign=middle;resizable=0;points=[];fontSize=14;fontColor=#000000;" vertex="1" connectable="0" parent="45">
                    <mxGeometry x="0.2257" relative="1" as="geometry">
                        <mxPoint as="offset"/>
                    </mxGeometry>
                </mxCell>
                <mxCell id="47" value="addoldnote" style="rounded=0;whiteSpace=wrap;html=1;" vertex="1" parent="1">
                    <mxGeometry x="200" y="420" width="70" height="20" as="geometry"/>
                </mxCell>
                <mxCell id="50" value="予定" style="ellipse;shape=cloud;whiteSpace=wrap;html=1;fontSize=14;fontColor=#000000;align=center;" vertex="1" parent="1">
                    <mxGeometry x="290" y="355" width="50" height="50" as="geometry"/>
                </mxCell>
                <mxCell id="51" value="" style="rounded=0;whiteSpace=wrap;html=1;fontSize=14;align=center;" vertex="1" parent="1">
                    <mxGeometry x="-450" y="295" width="180" height="145" as="geometry"/>
                </mxCell>
                <mxCell id="52" value="見えるコンポネント" style="rounded=0;whiteSpace=wrap;html=1;fontSize=14;fontColor=#ffffff;align=center;fillColor=#1ba1e2;strokeColor=#006EAF;" vertex="1" parent="1">
                    <mxGeometry x="-480" y="30" width="150" height="40" as="geometry"/>
                </mxCell>
                <mxCell id="53" value="変数" style="shape=cube;whiteSpace=wrap;html=1;boundedLbl=1;backgroundOutline=1;darkOpacity=0.05;darkOpacity2=0.1;fillColor=#ffcc99;strokeColor=#36393d;fontSize=14;" vertex="1" parent="1">
                    <mxGeometry x="-650" y="30" width="120" height="40" as="geometry"/>
                </mxCell>
                <mxCell id="54" value="" style="rounded=0;whiteSpace=wrap;html=1;fontSize=14;fontColor=#000000;align=center;" vertex="1" parent="1">
                    <mxGeometry x="-450" y="360" width="180" height="80" as="geometry"/>
                </mxCell>
                <mxCell id="55" value="NoteView" style="rounded=0;whiteSpace=wrap;html=1;fontSize=14;fontColor=#ffffff;align=center;fillColor=#1ba1e2;strokeColor=#006EAF;" vertex="1" parent="1">
                    <mxGeometry x="-435" y="385" width="150" height="50" as="geometry"/>
                </mxCell>
                <mxCell id="56" value="SwipeActionList" style="text;html=1;strokeColor=none;fillColor=none;align=center;verticalAlign=middle;whiteSpace=wrap;rounded=0;fontSize=14;fontColor=#000000;" vertex="1" parent="1">
                    <mxGeometry x="-380" y="360" width="40" height="20" as="geometry"/>
                </mxCell>
                <mxCell id="57" value="いいね" style="ellipse;shape=cloud;whiteSpace=wrap;html=1;fontSize=14;fontColor=#000000;align=center;" vertex="1" parent="1">
                    <mxGeometry x="-520" y="450" width="60" height="65" as="geometry"/>
                </mxCell>
                <mxCell id="58" value="RT" style="ellipse;shape=cloud;whiteSpace=wrap;html=1;fontSize=14;fontColor=#000000;align=center;" vertex="1" parent="1">
                    <mxGeometry x="-585" y="455" width="55" height="60" as="geometry"/>
                </mxCell>
                <mxCell id="59" value="" style="endArrow=classic;html=1;fontSize=14;fontColor=#000000;exitX=0;exitY=0.75;exitDx=0;exitDy=0;entryX=0.4;entryY=0.1;entryDx=0;entryDy=0;entryPerimeter=0;" edge="1" parent="1" source="54" target="57">
                    <mxGeometry width="50" height="50" relative="1" as="geometry">
                        <mxPoint x="-290" y="400" as="sourcePoint"/>
                        <mxPoint x="-240" y="350" as="targetPoint"/>
                        <Array as="points">
                            <mxPoint x="-496" y="420"/>
                        </Array>
                    </mxGeometry>
                </mxCell>
                <mxCell id="60" value="" style="endArrow=classic;html=1;fontSize=14;fontColor=#000000;exitX=0;exitY=0.5;exitDx=0;exitDy=0;entryX=0.4;entryY=0.1;entryDx=0;entryDy=0;entryPerimeter=0;" edge="1" parent="1" source="54" target="58">
                    <mxGeometry width="50" height="50" relative="1" as="geometry">
                        <mxPoint x="-290" y="400" as="sourcePoint"/>
                        <mxPoint x="-240" y="350" as="targetPoint"/>
                        <Array as="points">
                            <mxPoint x="-563" y="400"/>
                        </Array>
                    </mxGeometry>
                </mxCell>
                <mxCell id="61" value="NoteListBox" style="text;html=1;strokeColor=none;fillColor=none;align=center;verticalAlign=middle;whiteSpace=wrap;rounded=0;fontSize=14;fontColor=#000000;" vertex="1" parent="1">
                    <mxGeometry x="-380" y="310" width="40" height="20" as="geometry"/>
                </mxCell>
                <mxCell id="62" value="" style="endArrow=classic;html=1;fontSize=14;fontColor=#000000;exitX=-0.002;exitY=0.552;exitDx=0;exitDy=0;exitPerimeter=0;entryX=1;entryY=0.5;entryDx=0;entryDy=0;" edge="1" parent="1" source="34" target="54">
                    <mxGeometry width="50" height="50" relative="1" as="geometry">
                        <mxPoint x="-180" y="400" as="sourcePoint"/>
                        <mxPoint x="-130" y="350" as="targetPoint"/>
                        <Array as="points">
                            <mxPoint x="-240" y="329"/>
                            <mxPoint x="-240" y="400"/>
                        </Array>
                    </mxGeometry>
                </mxCell>
                <mxCell id="63" value="View" style="rounded=0;whiteSpace=wrap;html=1;fontSize=14;fontColor=#000000;align=center;" vertex="1" parent="1">
                    <mxGeometry x="-450" y="340" width="180" height="20" as="geometry"/>
                </mxCell>
                <mxCell id="67" value="" style="endArrow=classic;html=1;fontSize=14;fontColor=#FF3333;exitX=0.5;exitY=1;exitDx=0;exitDy=0;entryX=0.5;entryY=1;entryDx=0;entryDy=0;" edge="1" parent="1" source="65" target="47">
                    <mxGeometry width="50" height="50" relative="1" as="geometry">
                        <mxPoint x="1080" y="390" as="sourcePoint"/>
                        <mxPoint x="990" y="500" as="targetPoint"/>
                        <Array as="points">
                            <mxPoint x="990" y="560"/>
                            <mxPoint x="235" y="560"/>
                        </Array>
                    </mxGeometry>
                </mxCell>
                <mxCell id="68" value="" style="endArrow=classic;html=1;fontSize=14;fontColor=#FF3333;entryX=0.25;entryY=1;entryDx=0;entryDy=0;" edge="1" parent="1" target="65">
                    <mxGeometry width="50" height="50" relative="1" as="geometry">
                        <mxPoint x="253" y="460" as="sourcePoint"/>
                        <mxPoint x="950" y="435" as="targetPoint"/>
                        <Array as="points">
                            <mxPoint x="253" y="530"/>
                            <mxPoint x="975" y="530"/>
                        </Array>
                    </mxGeometry>
                </mxCell>
                <mxCell id="69" value="" style="curved=1;endArrow=classic;html=1;fontSize=14;fontColor=#FF3333;" edge="1" parent="1">
                    <mxGeometry width="50" height="50" relative="1" as="geometry">
                        <mxPoint x="300" y="470" as="sourcePoint"/>
                        <mxPoint x="250" y="470" as="targetPoint"/>
                        <Array as="points">
                            <mxPoint x="300" y="430"/>
                            <mxPoint x="250" y="430"/>
                        </Array>
                    </mxGeometry>
                </mxCell>
            </root>
        </mxGraphModel>
    </diagram>
</mxfile>